<svg height="20" viewBox="0 0 29.888 18.214001" width="20" xmlns="http://www.w3.org/2000/svg"><path d="m29.031 13.841h-23.927c-1.647 0-2.981 1.335-2.981 2.981v12.252c0 1.647 1.335 2.981 2.981 2.981h23.926c1.647 0 2.981-1.335 2.981-2.981v-12.252c.001-1.647-1.334-2.981-2.98-2.981zm-2.458 2-6.7 6.7c-.801.801-1.871 1.243-3.013 1.243-1.158 0-2.249-.453-3.07-1.275l-6.67-6.668zm3.439 13.233c0 .541-.44.981-.981.981h-23.927c-.541 0-.981-.44-.981-.981v-12.252c0-.314.158-.582.389-.762l7.864 7.863c1.2 1.2 2.792 1.86 4.485 1.86 1.676 0 3.248-.649 4.427-1.829l8.052-8.052c.388.131.673.487.673.919v12.253z" transform="translate(-2.123 -13.841)"></path></svg>