<svg enable-background="new 0 0 30 24.3" height="24.3" viewBox="0 0 30 24.3" width="30" xmlns="http://www.w3.org/2000/svg"><path d="m30 2.798c-1.102.5-2.302.801-3.5 1 1.3-.8 2.198-2 2.698-3.399-1.198.7-2.5 1.2-3.898 1.5-1.102-1.199-2.7-1.9-4.5-1.9-3.4 0-6.102 2.801-6.102 6.102 0 .5.102 1 .2 1.398-5.1-.299-9.6-2.699-12.7-6.398-.5.898-.8 2-.8 3.1 0 2.101 1.102 4 2.7 5.101-1 0-2-.3-2.8-.8v.102c0 3 2.1 5.5 4.898 6-.5.1-1.1.198-1.6.198-.4 0-.8 0-1.2-.101.8 2.4 3.102 4.201 5.7 4.301-2.1 1.602-4.8 2.602-7.6 2.602-.5 0-1 0-1.5-.102 2.698 1.699 6 2.8 9.398 2.8 11.3 0 17.5-9.399 17.5-17.5 0-.3 0-.5 0-.8 1.305-.904 2.305-2.003 3.106-3.204z"></path></svg>