<svg height="38" viewBox="0 0 38 38" width="38" xmlns="http://www.w3.org/2000/svg"><g fill-rule="evenodd"><path d="m10.447625 31.97225.5711875.339625c2.4046875 1.4261875 5.1596875 2.18025 7.968125 2.1814375h.007125c8.628375 0 15.6524375-7.0216875 15.656-15.65125.0011875-4.1811875-1.6256875-8.1141875-4.581375-11.07225s-6.8875-4.5885-11.0686875-4.5896875c-8.6355 0-15.658375 7.0205-15.6619375 15.6500625-.0011875 2.956875.8265 5.8365625 2.394 8.329125l.3716875.591375-1.58175 5.776zm-10.447625 6.02775 2.671875-9.7576875c-1.64825-2.8559375-2.515125-6.0954375-2.5139375-9.4133125.0035625-10.3823125 8.4538125-18.829 18.836125-18.829 5.0385625.0011875 9.768375 1.9629375 13.32375 5.521875 3.5565625 3.5589375 5.5135625 8.2899375 5.512375 13.321375-.00475 10.3823125-8.455 18.8301875-18.836125 18.8301875h-.0083125c-3.151625-.0011875-6.2498125-.7920625-9.00125-2.291875z"></path><path d="m14.3628125 10.324125c-.382375-.9179375-.7695-.79325-1.05925-.8075-.2743125-.01425-.5878125-.016625-.9013125-.016625-.3146875 0-.824125.1175625-1.2551875.589-.4310625.47025-1.6470625 1.6090625-1.6470625 3.9246875s1.68625 4.552875 1.921375 4.8675625c.235125.3135 3.3190625 5.065875 8.039375 7.103625 1.123375.4845 1.99975.77425 2.68375.9915625 1.1269375.3574375 2.1529375.3075625 2.964.1864375.904875-.135375 2.7846875-1.1388125 3.1765625-2.23725.3930625-1.099625.3930625-2.0413125.2755-2.23725s-.43225-.3146875-.9025-.5498125-2.7846875-1.3739375-3.21575-1.5306875c-.43225-.15675-.74575-.235125-1.05925.235125-.3135.4714375-1.216 1.5306875-1.4903125 1.845375-.2743125.3135-.548625.3526875-1.0200625.1175625-.47025-.235125-1.9866875-.7326875-3.7845625-2.3358125-1.398875-1.246875-2.3429375-2.78825-2.6184375-3.2585-.2743125-.4714375-.0285-.7255625.206625-.9606875.211375-.2101875.4714375-.5498125.7065625-.824125s.3135-.4714375.47025-.7849375c.15675-.3146875.078375-.589-.0391875-.824125-.1175625-.2363125-1.05925-2.5519375-1.451125-3.493625"></path></g></svg>